2.8Hzlow3min_grf.mot
version=1
nRows=30
nColumns 19
inDegrees=yes
endheader
time	1_ground_force_vx	1_ground_force_vy	1_ground_force_vz	1_ground_force_px	1_ground_force_py	1_ground_force_pz	1_ground_torque_x	1_ground_torque_y	1_ground_torque_z	2_ground_force_vx	2_ground_force_vy	2_ground_force_vz	2_ground_force_px	2_ground_force_py	2_ground_force_pz	2_ground_torque_x	2_ground_torque_y	2_ground_torque_z
            1.253500	          -13.210102	          118.046890	            6.271047	           -0.259973	            0.005903	           -0.331877	            0.043856	           -0.391898	           -0.020819	          -19.069936	          141.951715	          -10.795190	           -0.269065	            0.005512	           -0.697707	            0.009065	           -0.067476	            0.005131
            1.254000	          -13.578463	          121.293371	            5.873168	           -0.259388	            0.005908	           -0.332865	            0.049011	           -0.437802	           -0.021199	          -19.272917	          146.367585	           -9.934635	           -0.268860	            0.005513	           -0.697691	            0.011114	           -0.084403	            0.005729
            1.254500	          -14.178564	          126.526465	            4.613097	           -0.258269	            0.005911	           -0.333544	            0.042783	           -0.381785	           -0.013920	          -19.382779	          150.967265	           -8.885750	           -0.269353	            0.005514	           -0.698496	            0.008123	           -0.063267	            0.003724
            1.255000	          -15.099436	          132.299901	            3.447854	           -0.258651	            0.005914	           -0.334235	            0.037045	           -0.324583	           -0.008459	          -19.164051	          155.384156	           -7.884590	           -0.268687	            0.005520	           -0.699379	            0.017767	           -0.144055	            0.007310
            1.255500	          -15.836565	          139.153984	            2.516073	           -0.257375	            0.005904	           -0.332038	            0.029176	           -0.256367	           -0.004635	          -19.132677	          159.800035	           -6.789494	           -0.268629	            0.005520	           -0.699302	            0.022588	           -0.188656	            0.008015
            1.256000	          -16.435351	          145.285851	            1.855994	           -0.257055	            0.005903	           -0.331793	            0.034956	           -0.309003	           -0.003947	          -19.100869	          164.033615	           -6.211265	           -0.267339	            0.005524	           -0.699227	            0.021544	           -0.185016	            0.007006
            1.256500	          -17.309370	          149.255459	            0.958042	           -0.257442	            0.005908	           -0.333003	            0.039213	           -0.338129	           -0.002170	          -19.066631	          167.711228	           -4.649516	           -0.267468	            0.005524	           -0.699452	            0.028319	           -0.249094	            0.006906
            1.257000	          -18.044331	          153.582874	            0.703278	           -0.257953	            0.005919	           -0.335443	            0.051919	           -0.441908	           -0.002024	          -19.784153	          171.939925	           -3.460902	           -0.267241	            0.005527	           -0.699835	            0.023515	           -0.204368	            0.004114
            1.257500	          -18.781574	          160.437153	           -0.274359	           -0.256636	            0.005914	           -0.334333	            0.041533	           -0.354782	            0.000607	          -19.941385	          176.722405	           -2.082844	           -0.266294	            0.005534	           -0.701061	            0.034602	           -0.306645	            0.003614
            1.258000	          -19.978501	          168.554973	           -1.658151	           -0.255820	            0.005913	           -0.333938	            0.032184	           -0.271528	            0.002671	          -20.325098	          179.295963	           -1.181852	           -0.266637	            0.005534	           -0.701282	            0.036205	           -0.319378	            0.002105
            1.258500	          -21.313507	          175.952883	           -3.319828	           -0.255950	            0.005915	           -0.334479	            0.026618	           -0.219742	            0.004146	          -20.850610	          182.236626	           -0.091773	           -0.266795	            0.005536	           -0.702168	            0.039341	           -0.343840	            0.000173
            1.259000	          -23.016205	          183.532561	           -5.346670	           -0.255214	            0.005917	           -0.334854	            0.026325	           -0.209920	            0.006115	          -21.701780	          184.442524	            0.151111	           -0.267093	            0.005532	           -0.701333	            0.032954	           -0.280075	           -0.000229
            1.259500	          -24.901992	          190.210678	           -7.331066	           -0.255268	            0.005919	           -0.335473	            0.025135	           -0.191994	            0.007400	          -21.950341	          188.490416	            0.869587	           -0.266339	            0.005539	           -0.702533	            0.042519	           -0.365114	           -0.001684
            1.260000	          -26.693476	          195.622825	           -8.358126	           -0.254976	            0.005920	           -0.335529	            0.036931	           -0.270648	            0.011564	          -22.479443	          192.353989	            1.352886	           -0.266336	            0.005543	           -0.703520	            0.040259	           -0.344489	           -0.002423
            1.260500	          -28.162622	          199.410676	           -8.934380	           -0.255060	            0.005917	           -0.334799	            0.034397	           -0.243553	            0.010912	          -22.681156	          196.402080	            2.071342	           -0.266202	            0.005542	           -0.703135	            0.042013	           -0.363804	           -0.003837
            1.261000	          -29.676259	          202.655559	           -9.008423	           -0.255383	            0.005915	           -0.334510	            0.025607	           -0.174869	            0.007773	          -23.303289	          200.081174	            2.554023	           -0.266426	            0.005542	           -0.703352	            0.027888	           -0.239447	           -0.003057
            1.261500	          -31.283131	          206.263512	           -9.676821	           -0.255317	            0.005915	           -0.334385	            0.019242	           -0.126873	            0.005952	          -22.990799	          204.497901	            3.695928	           -0.266227	            0.005543	           -0.703359	            0.039185	           -0.348539	           -0.006299
            1.262000	          -32.617845	          212.039031	          -11.345455	           -0.255222	            0.005911	           -0.333441	            0.002688	           -0.017471	            0.000935	          -23.338377	          210.018640	            4.419701	           -0.266048	            0.005547	           -0.704288	            0.037848	           -0.340585	           -0.007167
            1.262500	          -34.181909	          215.472035	          -13.252849	           -0.255565	            0.005913	           -0.333888	            0.020039	           -0.126317	            0.007769	          -23.355952	          214.987640	            5.282147	           -0.266400	            0.005545	           -0.704139	            0.036828	           -0.338996	           -0.008329
            1.263000	          -35.746945	          221.069210	          -15.380246	           -0.254962	            0.005911	           -0.333418	            0.019446	           -0.120261	            0.008367	          -23.514907	          220.141612	            5.769886	           -0.266198	            0.005546	           -0.704190	            0.035993	           -0.336960	           -0.008832
            1.263500	          -36.622309	          224.320312	          -16.877417	           -0.255153	            0.005913	           -0.333994	            0.019254	           -0.117933	            0.008873	          -23.866095	          226.585460	            5.839950	           -0.266150	            0.005548	           -0.704650	            0.033278	           -0.315940	           -0.008143
            1.264000	          -37.589614	          230.815589	          -18.222878	           -0.254554	            0.005912	           -0.333815	            0.019932	           -0.122392	            0.009663	          -24.072502	          231.922901	            6.469150	           -0.265857	            0.005549	           -0.704797	            0.030650	           -0.295297	           -0.008237
            1.264500	          -38.463227	          236.947009	          -18.790562	           -0.254301	            0.005911	           -0.333421	            0.012302	           -0.075784	            0.006010	          -24.370093	          236.524582	            6.767265	           -0.265922	            0.005548	           -0.704618	            0.027278	           -0.264743	           -0.007575
            1.265000	          -39.246297	          243.080413	          -19.817033	           -0.254316	            0.005915	           -0.334296	            0.021025	           -0.130221	            0.010616	          -24.342978	          242.047543	            7.256238	           -0.265776	            0.005551	           -0.705085	            0.026027	           -0.258795	           -0.007758
            1.265500	          -40.166927	          249.394057	          -20.842390	           -0.254328	            0.005915	           -0.334484	            0.025805	           -0.160223	            0.013390	          -24.363293	          247.753805	            7.933600	           -0.265387	            0.005553	           -0.705411	            0.021592	           -0.219573	           -0.007031
            1.266000	          -40.400527	          256.609978	          -22.049012	           -0.254078	            0.005915	           -0.334343	            0.029823	           -0.189428	            0.016276	          -24.470745	          251.618900	            8.416719	           -0.265921	            0.005549	           -0.704907	            0.024608	           -0.253034	           -0.008464
            1.266500	          -40.724745	          261.661484	          -22.989547	           -0.254184	            0.005914	           -0.334079	            0.039768	           -0.255515	            0.022450	          -24.444352	          257.326504	            8.765565	           -0.266056	            0.005553	           -0.705948	            0.021802	           -0.229509	           -0.007818
            1.267000	          -40.911235	          266.892858	          -23.837939	           -0.254028	            0.005914	           -0.334201	            0.044206	           -0.288386	            0.025758	          -24.274836	          262.298660	            8.924010	           -0.265993	            0.005552	           -0.705658	            0.018851	           -0.203688	           -0.006930
            1.267500	          -41.645674	          270.858954	          -23.910825	           -0.253922	            0.005915	           -0.334278	            0.051041	           -0.331964	            0.029305	          -23.825049	          267.457372	            8.707568	           -0.266470	            0.005551	           -0.705876	            0.019344	           -0.217152	           -0.007070
            1.268000	          -42.290041	          278.071620	          -24.382728	           -0.254256	            0.005912	           -0.333712	            0.033420	           -0.219751	            0.019269	          -23.841623	          272.060738	            8.817850	           -0.266458	            0.005550	           -0.705730	            0.008246	           -0.094097	           -0.003050
